<svg width="64" height="64" viewBox="0 0 13 14" fill="none" xmlns="http://www.w3.org/2000/svg">
<path d="M1.123 12.6005L0 0H12.344L11.2195 12.5985L6.1645 14L1.123 12.6005Z" fill="#1572B6"/>
<path d="M6.172 12.929L10.257 11.7965L11.218 1.03052H6.172V12.929Z" fill="#33A9DC"/>
<path d="M6.172 5.59553H8.217L8.358 4.01303H6.172V2.46753H10.047L10.01 2.88203L9.6305 7.14103H6.172V5.59553V5.59553Z" fill="white"/>
<path d="M6.18149 9.60895L6.17449 9.61095L4.45349 9.14595L4.34349 7.91345H2.79199L3.00849 10.34L6.17399 11.219L6.18149 11.217V9.60895V9.60895Z" fill="#EBEBEB"/>
<path d="M8.08549 7.07544L7.8995 9.14494L6.17599 9.60994V11.2179L9.344 10.3399L9.3675 10.0789L9.63599 7.07544H8.08549V7.07544Z" fill="white"/>
<path d="M6.1775 2.46753V4.01303H2.4445L2.4135 3.66553L2.343 2.88203L2.306 2.46753H6.1775V2.46753Z" fill="#EBEBEB"/>
<path d="M6.172 5.59546V7.14096H4.4725L4.4415 6.79346L4.3715 6.00996L4.3345 5.59546H6.172V5.59546Z" fill="#EBEBEB"/>
</svg>
