<svg width="74" height="32" viewBox="0 0 74 32" fill="none" xmlns="http://www.w3.org/2000/svg">
<path d="M69.2573 25.4556C69.2573 28.7623 66.4798 31.4676 63.0852 31.4676H11.2069C7.81224 31.4676 5.03481 28.7623 5.03481 25.4556V6.30969C5.03481 3.00333 7.81224 0.297729 11.2069 0.297729H63.0852C66.4798 0.297729 69.2573 3.00333 69.2573 6.30969V25.4556Z" fill="url(#paint0_linear)"/>
<mask id="mask0" mask-type="alpha" maskUnits="userSpaceOnUse" x="0" y="0" width="74" height="32">
<path d="M0.401642 0.223389H73.7766V31.5354H0.401642" fill="white"/>
</mask>
<g mask="url(#mask0)">
<path fill-rule="evenodd" clip-rule="evenodd" d="M70.6434 11.6423C70.6434 9.29838 71.005 7.91613 71.005 5.39211C71.005 1.48554 69.5586 0.223389 66.3652 0.223389H64.0152V2.98789H64.7382C66.3652 2.98789 66.7267 3.5289 66.7267 5.5122C66.7267 7.37512 66.5458 9.23833 66.5458 11.4021C66.5458 14.1666 67.4497 15.2483 69.2573 15.6689V15.8494C67.4497 16.27 66.5458 17.352 66.5458 20.1165C66.5458 22.2799 66.7267 24.023 66.7267 26.0064C66.7267 28.0497 66.305 28.5904 64.7382 28.5904V28.6505H64.0152V31.5354H66.3652C69.5586 31.5354 71.005 30.2732 71.005 26.3669C71.005 23.7826 70.6434 22.4604 70.6434 20.1165C70.6434 18.8543 71.4267 17.5321 73.7767 17.412V14.2867C71.4267 14.2266 70.6434 12.9044 70.6434 11.6423Z" fill="#FAF9F8"/>
<path fill-rule="evenodd" clip-rule="evenodd" d="M43.9499 15.3083C42.0818 14.5872 40.3947 14.1665 40.3947 12.9644C40.3947 12.0631 41.1177 11.5221 42.4433 11.5221C43.769 11.5221 44.9742 12.0631 46.2999 13.0248L48.7101 9.83936C47.2035 8.69759 45.1548 7.49548 42.3831 7.49548C38.2858 7.49548 35.5138 9.83936 35.5138 13.1449C35.5138 16.0898 38.1049 17.5922 40.2743 18.4337C42.142 19.1548 43.9499 19.7559 43.9499 20.9577C43.9499 21.8593 43.2266 22.4603 41.5999 22.4603C40.0934 22.4603 38.5871 21.8593 36.9601 20.5971L34.6102 24.0831C36.4177 25.5854 39.1894 26.6071 41.4792 26.6071C46.2999 26.6071 48.8907 24.0831 48.8907 20.7776C48.8907 17.4721 46.2999 16.0898 43.9499 15.3083Z" fill="#FAF9F8"/>
<path fill-rule="evenodd" clip-rule="evenodd" d="M58.5317 15.3083C56.7241 14.5872 55.037 14.1665 55.037 12.9644C55.037 12.0631 55.76 11.5221 57.0856 11.5221C58.4113 11.5221 59.6165 12.0631 60.9422 13.0248L63.3524 9.83936C61.8458 8.69759 59.7971 7.49548 57.0254 7.49548C52.9278 7.49548 50.1561 9.83936 50.1561 13.1449C50.1561 16.0898 52.7472 17.5922 54.9163 18.4337C56.7843 19.1548 58.5919 19.7559 58.5919 20.9577C58.5919 21.8593 57.8689 22.4603 56.2419 22.4603C54.7356 22.4603 53.2291 21.8593 51.6024 20.5971L49.192 24.0831C50.9998 25.5854 53.7715 26.6071 56.0613 26.6071C60.8817 26.6071 63.4728 24.0831 63.4728 20.7776C63.4728 17.4721 60.8817 16.0898 58.5317 15.3083Z" fill="#FAF9F8"/>
<path fill-rule="evenodd" clip-rule="evenodd" d="M22.7396 15.0078C23.1011 12.6039 24.5471 11.4621 26.2343 11.4621C28.4037 11.4621 29.2474 12.9644 29.2474 15.0078H22.7396ZM33.8266 16.0898C33.8869 11.2216 31.2356 7.43542 26.1741 7.43542C21.7754 7.43542 17.5577 11.1015 17.6781 16.871C17.6781 22.8209 21.5948 26.3066 26.7767 26.3066C28.9461 26.3066 31.3563 25.5254 33.224 24.2632L31.4165 21.0781C30.0908 21.8593 28.8254 22.2199 27.4997 22.2199C25.0895 22.2199 23.2215 21.0781 22.7396 18.3133H33.646C33.7062 17.8927 33.8266 17.0514 33.8266 16.0898Z" fill="#FAF9F8"/>
<path fill-rule="evenodd" clip-rule="evenodd" d="M17.3766 22.0998C16.9549 22.0998 16.4125 21.7392 16.4125 20.5972V0.223389H7.85601C4.60238 0.223389 3.15604 1.48554 3.15604 5.39211C3.15604 7.97618 3.51755 9.41876 3.51755 11.6423C3.51755 12.9044 2.73432 14.2266 0.384338 14.3467V17.4721C2.73432 17.5321 3.51755 18.8543 3.51755 20.1165C3.51755 22.3403 3.15604 23.6622 3.15604 26.2465C3.15604 30.1531 4.60238 31.4153 7.7958 31.4153H10.1458V28.6505H9.42276C7.9165 28.6505 7.43429 28.0497 7.43429 26.0664C7.43429 24.0831 7.61519 22.4003 7.61519 20.1765C7.61519 17.412 6.71126 16.33 4.90341 15.9094V15.7293C6.71126 15.3083 7.61519 14.2266 7.61519 11.4621C7.61519 9.29838 7.43429 7.55555 7.43429 5.57225C7.43429 3.58894 7.85601 3.04823 9.42276 3.04823H11.0497V20.2966C11.0497 23.9627 12.3152 26.3669 15.9908 26.3669C17.1355 26.3669 18.0395 26.1865 18.7023 25.946L18.0997 22.0397C17.7382 22.0998 17.5575 22.0998 17.3766 22.0998Z" fill="#FAF9F8"/>
</g>
<defs>
<linearGradient id="paint0_linear" x1="37.146" y1="0.297729" x2="37.146" y2="31.4676" gradientUnits="userSpaceOnUse">
<stop stop-color="#2E4F82"/>
<stop offset="1" stop-color="#182E4D"/>
</linearGradient>
</defs>
</svg>
