<svg width="63" height="63" viewBox="0 0 63 63" fill="none" xmlns="http://www.w3.org/2000/svg">
<path d="M0.393433 31.2746V62.5492H62.9426V0H0.393433V31.2746Z" fill="#007ACC"/>
<path d="M14.2253 31.4821L14.2055 34.0435H22.3467V57.1769H28.1056V34.0435H36.2468V31.5317C36.2468 30.1415 36.217 28.9799 36.1774 28.9501C36.1476 28.9105 31.1933 28.8905 25.1866 28.9005L14.2554 28.9303L14.2256 31.4819L14.2253 31.4821Z" fill="white"/>
<path d="M50.8645 28.8579C52.4529 29.2552 53.6643 29.9598 54.7762 31.1116C55.3521 31.7273 56.2058 32.8493 56.2755 33.1173C56.295 33.1967 53.5749 35.0236 51.9268 36.0461C51.8672 36.086 51.6288 35.8277 51.3607 35.4304C50.5566 34.2591 49.7127 33.7526 48.4219 33.6634C46.5259 33.5342 45.3044 34.5271 45.3145 36.1849C45.3145 36.6716 45.3838 36.9595 45.5825 37.3567C45.9996 38.2205 46.7739 38.7367 49.2064 39.7891C53.6841 41.7154 55.6001 42.9862 56.7917 44.793C58.1221 46.8088 58.42 50.0254 57.5164 52.4181C56.5237 55.0193 54.0616 56.7868 50.5962 57.3725C49.5241 57.5611 46.9825 57.5313 45.8307 57.3229C43.319 56.876 40.936 55.635 39.4666 54.0068C38.8907 53.3713 37.7687 51.7132 37.8384 51.594C37.8682 51.5544 38.1262 51.3956 38.414 51.2268C38.6921 51.068 39.7446 50.462 40.7374 49.8864L42.5344 48.8438L42.9117 49.3999C43.438 50.204 44.5895 51.3062 45.2846 51.6734C47.2801 52.726 50.0206 52.577 51.3707 51.3656C51.9466 50.8395 52.1848 50.2934 52.1848 49.4891C52.1848 48.7644 52.0954 48.4468 51.7182 47.9009C51.232 47.2058 50.239 46.6199 47.4191 45.399C44.1925 44.0087 42.8025 43.145 41.5317 41.7748C40.797 40.9807 40.1019 39.7097 39.814 38.6473C39.5758 37.7638 39.516 35.5497 39.7048 34.6561C40.3701 31.5385 42.7231 29.3644 46.1186 28.7188C47.2205 28.5104 49.7821 28.5898 50.8645 28.8581V28.8579Z" fill="white"/>
<g clip-path="url(#clip0)">
<path d="M40.2197 24.0602C40.557 24.0602 40.8305 23.7867 40.8305 23.4493C40.8305 23.112 40.557 22.8385 40.2197 22.8385C39.8823 22.8385 39.6088 23.112 39.6088 23.4493C39.6088 23.7867 39.8823 24.0602 40.2197 24.0602Z" fill="#007ACC"/>
<path d="M40.2197 24.8501C39.4855 24.8679 38.7531 24.7689 38.05 24.557C37.7252 24.454 37.4222 24.2918 37.1565 24.0785C37.0551 24.0057 36.9706 23.9118 36.9089 23.8032C36.8472 23.6947 36.8097 23.574 36.799 23.4496C36.799 23.0458 37.2427 22.6499 37.986 22.3909C38.7079 22.1615 39.4622 22.0502 40.2197 22.0616C40.967 22.0511 41.7112 22.1604 42.424 22.3851C42.7369 22.4848 43.0295 22.6392 43.2885 22.841C43.3882 22.9105 43.4714 23.001 43.5322 23.1062C43.593 23.2113 43.6299 23.3286 43.6403 23.4496C43.6403 23.8694 43.1443 24.2948 42.3454 24.5591C41.6558 24.7642 40.9389 24.8624 40.2197 24.8501ZM40.2197 22.3538C39.495 22.3441 38.7734 22.4499 38.082 22.667C37.3979 22.9057 37.0912 23.2322 37.0912 23.4489C37.0912 23.6756 37.4208 24.0321 38.1446 24.2796C38.8172 24.4814 39.5176 24.5753 40.2197 24.5579C40.9078 24.5702 41.5938 24.4771 42.2537 24.2818C43.0051 24.0329 43.3471 23.6759 43.3471 23.4496C43.3348 23.372 43.3065 23.2977 43.264 23.2316C43.2216 23.1654 43.1658 23.1088 43.1004 23.0653C42.8687 22.8862 42.6072 22.7494 42.328 22.6612C41.6461 22.4471 40.9343 22.3433 40.2197 22.3538Z" fill="#007ACC"/>
<path d="M38.8319 26.4962C38.7179 26.4988 38.6053 26.4712 38.5055 26.4161C38.1556 26.2143 38.0344 25.6323 38.1812 24.859C38.3431 24.1189 38.6237 23.4099 39.012 22.7594C39.3762 22.1068 39.8425 21.5167 40.3932 21.0114C40.6358 20.7903 40.9158 20.6138 41.22 20.4903C41.33 20.4387 41.4501 20.412 41.5716 20.412C41.6931 20.412 41.8131 20.4387 41.9232 20.4903C42.287 20.6999 42.4075 21.342 42.2376 22.1662C42.0707 22.8661 41.7975 23.5362 41.4274 24.1533C41.076 24.7982 40.6244 25.3832 40.0895 25.8864C39.838 26.1162 39.5462 26.2976 39.2287 26.4212C39.1016 26.4684 38.9674 26.4938 38.8319 26.4962ZM39.2651 22.9045C38.8947 23.5274 38.6258 24.2053 38.4686 24.9127C38.3334 25.6249 38.4632 26.0533 38.6518 26.1622C38.8473 26.2754 39.3218 26.1681 39.8979 25.6648C40.4086 25.1827 40.8396 24.6227 41.175 24.0057C41.5295 23.4158 41.7917 22.7751 41.9523 22.1058C42.1121 21.3301 41.974 20.8551 41.778 20.7422C41.7046 20.7141 41.6261 20.7015 41.5476 20.7052C41.469 20.7089 41.3921 20.7289 41.3216 20.7639C41.0508 20.8757 40.8019 21.0343 40.5862 21.2326C40.0601 21.7165 39.6147 22.2815 39.2668 22.906L39.2651 22.9045Z" fill="#007ACC"/>
<path d="M41.6068 26.4994C41.2757 26.4994 40.8552 26.299 40.4174 25.9225C39.857 25.4126 39.3829 24.8155 39.0132 24.1543C38.6298 23.5127 38.3515 22.814 38.1888 22.0845C38.1183 21.7636 38.1052 21.4327 38.1502 21.1072C38.1606 20.9864 38.1974 20.8694 38.2579 20.7644C38.3185 20.6595 38.4013 20.569 38.5006 20.4995C38.8639 20.2892 39.4804 20.5054 40.1095 21.0639C40.6325 21.558 41.0767 22.1294 41.4265 22.7581C41.8097 23.3847 42.0909 24.0681 42.2596 24.7829C42.3332 25.1156 42.3446 25.4591 42.2931 25.7959C42.2809 25.9201 42.2419 26.0403 42.1789 26.148C42.1159 26.2558 42.0303 26.3486 41.9281 26.4202C41.8299 26.4746 41.719 26.5019 41.6068 26.4994ZM39.2661 24.0072C39.6207 24.6391 40.0737 25.2106 40.608 25.7001C41.1575 26.1729 41.5934 26.2746 41.7808 26.1644C41.9762 26.0508 42.1204 25.587 41.9718 24.8367C41.8091 24.1542 41.5393 23.5019 41.1726 22.9038C40.8388 22.302 40.4149 21.7549 39.9155 21.2814C39.3233 20.7556 38.8429 20.6381 38.6472 20.7514C38.5862 20.801 38.5361 20.8627 38.5002 20.9326C38.4642 21.0025 38.4431 21.0791 38.4383 21.1575C38.3994 21.4478 38.4121 21.7427 38.4757 22.0286C38.6321 22.7262 38.899 23.3943 39.2663 24.0077L39.2661 24.0072Z" fill="#007ACC"/>
</g>
<defs>
<clipPath id="clip0">
<rect width="7.81865" height="7.81865" fill="white" transform="translate(36.3104 19.5466)"/>
</clipPath>
</defs>
</svg>
