<svg width="64px" height="64px" viewBox="0 0 14 14" fill="none" xmlns="http://www.w3.org/2000/svg">
<path d="M1.95101 12.6005L0.827515 0H13.1725L12.0475 12.5985L6.99251 14L1.95101 12.6005Z" fill="#E44F26"/>
<path d="M7 12.929L11.085 11.7965L12.046 1.03052H7V12.929Z" fill="#F1662A"/>
<path d="M7 5.70344H4.955L4.814 4.12094H7V2.57544H3.125L3.162 2.99044L3.5415 7.24894H7V5.70344V5.70344Z" fill="#EBEBEB"/>
<path d="M7 9.71697L6.993 9.71897L5.272 9.25447L5.162 8.02197H3.6105L3.827 10.448L6.993 11.327L7 11.325V9.71697Z" fill="#EBEBEB"/>
<path d="M6.99451 5.70349V7.24899H8.89751L8.71851 9.25349L6.99451 9.71849V11.3265L10.163 10.448L10.186 10.187L10.549 6.11849L10.587 5.70349H6.99451V5.70349Z" fill="white"/>
<path d="M6.99451 2.57544V4.12094H10.7275L10.7585 3.77394L10.829 2.99044L10.866 2.57544H6.99451V2.57544Z" fill="white"/>
</svg>
