<svg width="84" height="60" viewBox="0 0 84 60" fill="none" xmlns="http://www.w3.org/2000/svg">
<path d="M52.0547 41.9585C53.1404 44.1688 54.8251 46.0267 56.9151 47.3186C59.0051 48.6105 61.4156 49.2841 63.8697 49.2619C68.8323 49.2619 72.003 46.77 72.003 43.3292C72.003 39.2066 68.7448 37.7445 63.2852 35.344L60.2895 34.0541C51.6487 30.3567 45.9057 25.7245 45.9057 15.9327C45.9057 6.91068 52.7511 0.0466238 63.4462 0.0466238C66.9174 -0.206322 70.3858 0.573951 73.4178 2.28989C76.4498 4.00583 78.9109 6.58129 80.4933 9.69427L71.1666 15.7078C70.5559 14.1652 69.4922 12.8458 68.117 11.9248C66.7417 11.0039 65.12 10.525 63.4672 10.5518C62.7468 10.479 62.0192 10.5578 61.3308 10.7831C60.6424 11.0084 60.0083 11.3753 59.4689 11.8604C58.9296 12.3456 58.4968 12.9382 58.1982 13.6006C57.8996 14.2631 57.7417 14.9807 57.7347 15.7078C57.7347 19.3173 59.9605 20.7759 65.0841 23.0112L68.0798 24.2975C78.257 28.6803 84 33.1474 84 43.1921C84 54.0207 75.5307 59.9534 64.1532 59.9534C59.7214 60.2365 55.3027 59.2257 51.4302 57.043C47.5577 54.8602 44.3969 51.5988 42.329 47.6522L52.0547 41.9585ZM9.75019 43.0129C11.633 46.3658 13.3444 49.1986 17.4495 49.1986C21.3832 49.1986 23.868 47.6522 23.868 41.6422V0.749548H35.844V41.8109C35.844 54.2632 28.5716 59.9323 17.9605 59.9323C14.2123 60.1361 10.4904 59.1956 7.28463 57.2345C4.07883 55.2735 1.53924 52.3838 0 48.9456L9.75019 43.0129Z" fill="#F5DE19"/>
</svg>
