<svg width="103" height="64" viewBox="0 0 103 64" fill="none" xmlns="http://www.w3.org/2000/svg">
<path d="M51.1618 63.1679C50.8156 63.1679 50.4924 63.0756 50.1921 62.914L47.1213 61.09C46.6594 60.8359 46.8904 60.7436 47.029 60.6975C47.6523 60.4897 47.7678 60.4433 48.4143 60.0742C48.4836 60.0278 48.5761 60.051 48.6452 60.0971L51.0004 61.5056C51.0927 61.5517 51.2082 61.5517 51.2773 61.5056L60.4901 56.1719C60.5824 56.1257 60.6287 56.0332 60.6287 55.918V45.2738C60.6287 45.1581 60.5824 45.066 60.4901 45.0197L51.2773 39.7092C51.185 39.6628 51.0695 39.6628 51.0004 39.7092L41.7877 45.0197C41.6954 45.0658 41.649 45.1813 41.649 45.2736V55.9178C41.649 56.0103 41.6954 56.1255 41.7877 56.1719L44.3045 57.6265C45.6667 58.3191 46.521 57.511 46.521 56.7029V46.1972C46.521 46.0587 46.6365 45.9201 46.7981 45.9201H47.9756C48.1142 45.9201 48.2527 46.0356 48.2527 46.1972V56.7029C48.2527 58.5269 47.2598 59.5891 45.5281 59.5891C44.9971 59.5891 44.5815 59.5891 43.4039 59.0117L40.9795 57.6265C40.3792 57.2803 40.0098 56.6336 40.0098 55.9409V45.2968C40.0098 44.6042 40.3792 43.9575 40.9795 43.6113L50.1921 38.2776C50.7695 37.9543 51.5546 37.9543 52.1317 38.2776L61.3443 43.6113C61.9446 43.9575 62.3142 44.6042 62.3142 45.2968V55.9409C62.3142 56.6336 61.9446 57.2803 61.3443 57.6265L52.1317 62.9601C51.8315 63.0988 51.4853 63.1679 51.162 63.1679H51.1618ZM54.0019 55.8486C49.9614 55.8486 49.1301 54.0015 49.1301 52.4314C49.1301 52.2928 49.2456 52.1544 49.4072 52.1544H50.6078C50.7463 52.1544 50.8618 52.2467 50.8618 52.3853C51.0466 53.6089 51.5776 54.2093 54.025 54.2093C55.9645 54.2093 56.796 53.7706 56.796 52.7315C56.796 52.1312 56.5648 51.6927 53.5402 51.3924C51.0234 51.1383 49.4533 50.5843 49.4533 48.5755C49.4533 46.7052 51.0236 45.5969 53.6557 45.5969C56.611 45.5969 58.0658 46.6129 58.2505 48.8293C58.2505 48.8988 58.2274 48.9679 58.1812 49.0372C58.1349 49.0834 58.0658 49.1295 57.9964 49.1295H56.7958C56.6803 49.1295 56.5648 49.0372 56.5418 48.9218C56.2648 47.652 55.5489 47.2362 53.6557 47.2362C51.5314 47.2362 51.2773 47.9752 51.2773 48.5292C51.2773 49.1988 51.5776 49.4066 54.4406 49.776C57.2806 50.1456 58.6199 50.6766 58.6199 52.6622C58.5968 54.6941 56.9344 55.8486 54.0019 55.8486Z" fill="#539E43"/>
<path d="M22.5772 21.5381C22.5772 21.1225 22.3463 20.7298 21.9769 20.522L12.187 14.8883C12.0252 14.7958 11.8406 14.7496 11.656 14.7264H11.5635C11.3789 14.7264 11.1941 14.7958 11.0325 14.8883L1.24256 20.522C0.872971 20.7298 0.642227 21.1223 0.642227 21.5381L0.665401 36.6846C0.665401 36.8924 0.780873 37.1002 0.965468 37.1927C1.15026 37.3081 1.38101 37.3081 1.54283 37.1927L7.36136 33.8678C7.73075 33.66 7.96169 33.2674 7.96169 32.8519V25.7634C7.96169 25.3478 8.19243 24.9553 8.56202 24.7475L11.0325 23.3159C11.2173 23.2004 11.425 23.1541 11.6328 23.1541C11.8406 23.1541 12.0483 23.2004 12.2102 23.3159L14.6806 24.7475C15.0502 24.9553 15.2809 25.3476 15.2809 25.7634V32.8519C15.2809 33.2674 15.5119 33.66 15.8813 33.8678L21.6998 37.1927C21.8846 37.3081 22.1154 37.3081 22.3001 37.1927C22.4849 37.1002 22.6004 36.8924 22.6004 36.6846L22.5772 21.5381Z" fill="#333333"/>
<path d="M69.6336 0.688269C69.449 0.595772 69.218 0.595772 69.0562 0.688269C68.8716 0.803741 68.7562 0.988336 68.7562 1.1961V16.2044C68.7562 16.3429 68.687 16.4813 68.5484 16.5738C68.4099 16.6429 68.2713 16.6429 68.1328 16.5738L65.6854 15.1654C65.5059 15.0632 65.303 15.0095 65.0965 15.0095C64.89 15.0095 64.6871 15.0632 64.5077 15.1654L54.7178 20.8223C54.3484 21.0301 54.1174 21.4226 54.1174 21.8382V33.1288C54.1174 33.5443 54.3484 33.9371 54.7178 34.1449L64.5077 39.8018C64.6871 39.9039 64.89 39.9577 65.0965 39.9577C65.303 39.9577 65.5059 39.9039 65.6854 39.8018L75.4753 34.1449C75.8447 33.9371 76.0756 33.5445 76.0756 33.1288V4.98289C76.0756 4.54418 75.8447 4.15182 75.4753 3.94385L69.6338 0.688269H69.6336ZM68.7332 29.4115C68.7332 29.527 68.687 29.6193 68.5945 29.6654L65.2467 31.6049C65.1999 31.6277 65.1486 31.6396 65.0965 31.6396C65.0445 31.6396 64.9932 31.6277 64.9464 31.6049L61.5985 29.6654C61.506 29.6193 61.4599 29.5038 61.4599 29.4115V25.5324C61.4599 25.417 61.506 25.3247 61.5985 25.2785L64.9464 23.3389C64.9932 23.3161 65.0445 23.3042 65.0965 23.3042C65.1486 23.3042 65.1999 23.3161 65.2467 23.3389L68.5945 25.2785C68.687 25.3245 68.7332 25.4401 68.7332 25.5324V29.4115Z" fill="#333333"/>
<path d="M102.213 25.4401C102.582 25.2324 102.79 24.8398 102.79 24.4241V21.6765C102.79 21.261 102.559 20.8684 102.213 20.6607L92.4921 15.0269C92.3127 14.9248 92.1098 14.8711 91.9033 14.8711C91.6969 14.8711 91.494 14.9248 91.3146 15.0269L81.5247 20.6836C81.1551 20.8914 80.9243 21.284 80.9243 21.6997V32.9904C80.9243 33.4059 81.1551 33.7985 81.5247 34.0062L91.2453 39.5477C91.6149 39.7554 92.0534 39.7554 92.3998 39.5477L98.2874 36.2693C98.4722 36.1768 98.5877 35.969 98.5877 35.7613C98.5877 35.5535 98.4722 35.3457 98.2874 35.2532L88.4514 29.5963C88.2668 29.4811 88.1513 29.2963 88.1513 29.0885V25.5558C88.1513 25.3481 88.2668 25.1403 88.4514 25.0478L91.5224 23.2929C91.6123 23.2364 91.7163 23.2063 91.8225 23.2063C91.9287 23.2063 92.0328 23.2364 92.1227 23.2929L95.1935 25.0478C95.3783 25.1633 95.4937 25.3479 95.4937 25.5558V28.3265C95.4937 28.5343 95.6092 28.7421 95.7938 28.8344C95.9786 28.9498 96.2094 28.9498 96.3941 28.8344L102.213 25.4401Z" fill="#333333"/>
<path d="M91.7533 24.9092C91.7876 24.8867 91.8277 24.8746 91.8687 24.8746C91.9097 24.8746 91.9498 24.8867 91.9841 24.9092L93.8544 25.9944C93.9237 26.0404 93.9699 26.1097 93.9699 26.2022V28.3726C93.9699 28.4649 93.9237 28.5342 93.8544 28.5803L91.9841 29.6655C91.9498 29.6881 91.9097 29.7001 91.8687 29.7001C91.8277 29.7001 91.7876 29.6881 91.7533 29.6655L89.883 28.5803C89.8137 28.5342 89.7675 28.4649 89.7675 28.3726V26.2022C89.7675 26.1097 89.8137 26.0404 89.883 25.9944L91.7533 24.9092Z" fill="#539E43"/>
<mask id="mask0" mask-type="alpha" maskUnits="userSpaceOnUse" x="27" y="14" width="23" height="26">
<path d="M38.9476 15.0732C38.7682 14.9711 38.5653 14.9174 38.3588 14.9174C38.1524 14.9174 37.9495 14.9711 37.7701 15.0732L28.0495 20.6836C27.6799 20.8913 27.4722 21.2839 27.4722 21.6994V32.9441C27.4722 33.3597 27.7031 33.7522 28.0495 33.96L37.7701 39.5708C37.9495 39.6729 38.1524 39.7266 38.3588 39.7266C38.5653 39.7266 38.7682 39.6729 38.9476 39.5708L48.6684 33.96C49.0378 33.7522 49.2457 33.3597 49.2457 32.9441V21.6996C49.2457 21.2841 49.0146 20.8915 48.6684 20.6838L38.9476 15.0732Z" fill="white"/>
</mask>
<g mask="url(#mask0)">
<path d="M38.9476 15.0732C38.7682 14.9711 38.5653 14.9174 38.3588 14.9174C38.1524 14.9174 37.9495 14.9711 37.7701 15.0732L28.0495 20.6836C27.6799 20.8913 27.4722 21.2839 27.4722 21.6994V32.9441C27.4722 33.3597 27.7031 33.7522 28.0495 33.96L37.7701 39.5708C37.9495 39.6729 38.1524 39.7266 38.3588 39.7266C38.5653 39.7266 38.7682 39.6729 38.9476 39.5708L48.6684 33.96C49.0378 33.7522 49.2457 33.3597 49.2457 32.9441V21.6996C49.2457 21.2841 49.0146 20.8915 48.6684 20.6838L38.9476 15.0732Z" fill="url(#paint0_linear)"/>
<path d="M48.6914 20.6837L38.9246 15.0731C38.8286 15.0247 38.7281 14.986 38.6243 14.9576L27.6799 33.7064C27.7706 33.8171 27.8801 33.9109 28.0034 33.9835L37.7701 39.5942C38.0472 39.7559 38.3704 39.802 38.6705 39.7095L48.9455 20.9148C48.8761 20.8225 48.7837 20.753 48.6914 20.6839V20.6837Z" fill="url(#paint1_linear)"/>
<path fill-rule="evenodd" clip-rule="evenodd" d="M48.7145 33.9601C48.9916 33.7985 49.1993 33.5214 49.2918 33.2213L38.5779 14.9345C38.3009 14.8883 38.0006 14.9113 37.7469 15.0729L28.0493 20.6607L38.5086 39.7325C38.6607 39.7076 38.8085 39.661 38.9473 39.594L48.7143 33.9603L48.7145 33.9601Z" fill="url(#paint2_linear)"/>
<path fill-rule="evenodd" clip-rule="evenodd" d="M48.7145 33.9603L38.9707 39.5711C38.8332 39.6412 38.6849 39.688 38.532 39.7095L38.7168 40.0559L49.5226 33.7989V33.6603L49.2455 33.1984C49.1994 33.5216 48.9916 33.7987 48.7145 33.9603Z" fill="url(#paint3_linear)"/>
<path fill-rule="evenodd" clip-rule="evenodd" d="M48.7145 33.9603L38.9707 39.5711C38.8332 39.6412 38.6849 39.688 38.532 39.7095L38.7168 40.0559L49.5226 33.7989V33.6603L49.2455 33.1984C49.1994 33.5216 48.9916 33.7987 48.7145 33.9603Z" fill="url(#paint4_linear)"/>
</g>
<defs>
<linearGradient id="paint0_linear" x1="42.3191" y1="19.2557" x2="31.6644" y2="35.9975" gradientUnits="userSpaceOnUse">
<stop stop-color="#41873F"/>
<stop offset="0.3288" stop-color="#418B3D"/>
<stop offset="0.6352" stop-color="#419637"/>
<stop offset="0.9319" stop-color="#3FA92D"/>
<stop offset="1" stop-color="#3FAE2A"/>
</linearGradient>
<linearGradient id="paint1_linear" x1="36.883" y1="28.639" x2="63.5672" y2="14.1414" gradientUnits="userSpaceOnUse">
<stop offset="0.1376" stop-color="#41873F"/>
<stop offset="0.4032" stop-color="#54A044"/>
<stop offset="0.7136" stop-color="#66B848"/>
<stop offset="0.9081" stop-color="#6CC04A"/>
</linearGradient>
<linearGradient id="paint2_linear" x1="27.1169" y1="27.3222" x2="49.6103" y2="27.3222" gradientUnits="userSpaceOnUse">
<stop offset="0.09192" stop-color="#6CC04A"/>
<stop offset="0.2864" stop-color="#66B848"/>
<stop offset="0.5968" stop-color="#54A044"/>
<stop offset="0.8624" stop-color="#41873F"/>
</linearGradient>
<linearGradient id="paint3_linear" x1="27.1171" y1="36.646" x2="49.6102" y2="36.646" gradientUnits="userSpaceOnUse">
<stop offset="0.09192" stop-color="#6CC04A"/>
<stop offset="0.2864" stop-color="#66B848"/>
<stop offset="0.5968" stop-color="#54A044"/>
<stop offset="0.8624" stop-color="#41873F"/>
</linearGradient>
<linearGradient id="paint4_linear" x1="52.8871" y1="18.7242" x2="47.1888" y2="48.5835" gradientUnits="userSpaceOnUse">
<stop stop-color="#41873F"/>
<stop offset="0.3288" stop-color="#418B3D"/>
<stop offset="0.6352" stop-color="#419637"/>
<stop offset="0.9319" stop-color="#3FA92D"/>
<stop offset="1" stop-color="#3FAE2A"/>
</linearGradient>
</defs>
</svg>
