<svg width="73" height="63" viewBox="0 0 73 63" fill="none" xmlns="http://www.w3.org/2000/svg">
<path d="M36.5464 37.4879C40.1282 37.4879 43.0319 34.6779 43.0319 31.2116C43.0319 27.7454 40.1282 24.9354 36.5464 24.9354C32.9645 24.9354 30.0608 27.7454 30.0608 31.2116C30.0608 34.6779 32.9645 37.4879 36.5464 37.4879Z" fill="#007ACC"/>
<path d="M36.5463 45.6011C28.7511 45.7836 20.9754 44.7667 13.5098 42.5885C10.0611 41.5306 6.84459 39.864 4.02279 37.673C2.94601 36.9245 2.0493 35.9594 1.39419 34.844C0.739073 33.7286 0.341062 32.4892 0.227463 31.211C0.227463 27.0611 4.93854 22.9942 12.8301 20.333C20.4953 17.9751 28.5041 16.8323 36.5463 16.9489C44.4813 16.8416 52.3828 17.9638 59.9513 20.2728C63.2726 21.2975 66.3801 22.8835 69.1296 24.9574C70.1879 25.6709 71.0712 26.601 71.7168 27.6817C72.3623 28.7624 72.7544 29.9673 72.8652 31.211C72.8652 35.524 67.599 39.8948 59.1159 42.6111C51.7949 44.7183 44.1832 45.7267 36.5463 45.6011ZM36.5463 19.9514C28.8522 19.8519 21.1908 20.9383 13.8496 23.1699C6.58586 25.6226 3.33013 28.9766 3.33013 31.2034C3.33013 33.5332 6.82972 37.196 14.5138 39.7391C21.6558 41.8124 29.0922 42.7775 36.5463 42.5985C43.8527 42.725 51.136 41.7683 58.1431 39.7617C66.1203 37.2035 69.7522 33.5357 69.7522 31.211C69.6213 30.4132 69.3209 29.6504 68.8699 28.9707C68.4189 28.291 67.8271 27.7092 67.132 27.262C64.6721 25.4222 61.8961 24.0165 58.9317 23.1096C51.6914 20.9098 44.1343 19.8437 36.5463 19.9514Z" fill="#007ACC"/>
<path d="M21.8112 62.5148C20.601 62.5417 19.4051 62.2576 18.3453 61.6914C14.6304 59.6177 13.3437 53.6377 14.9028 45.692C16.6219 38.088 19.6004 30.8031 23.7231 24.1194C27.5904 17.4142 32.5413 11.3509 38.3882 6.1594C40.9646 3.88667 43.9368 2.07369 47.167 0.804534C48.3353 0.274668 49.6098 0 50.9 0C52.1903 0 53.4648 0.274668 54.6331 0.804534C58.4959 2.95853 59.7748 9.55609 57.9718 18.024C56.1997 25.2154 53.2985 32.1014 49.3694 38.4418C45.6383 45.0678 40.8433 51.0783 35.1636 56.2486C32.4936 58.6105 29.3949 60.4737 26.0242 61.7441C24.6747 62.2288 23.2504 62.4894 21.8112 62.5148ZM26.4107 25.6107C22.4782 32.0107 19.6234 38.9758 17.9536 46.2444C16.519 53.5624 17.8965 57.9633 19.8993 59.083C21.9746 60.2453 27.0126 59.1432 33.1297 53.9716C38.5517 49.0183 43.1284 43.2649 46.6896 36.9254C50.4537 30.8639 53.2366 24.2805 54.9418 17.4039C56.6384 9.43308 55.1727 4.55269 53.0921 3.39285C52.3123 3.1037 51.479 2.97427 50.6449 3.01273C49.8108 3.05119 48.994 3.2567 48.2462 3.61628C45.3709 4.76444 42.7276 6.39446 40.4376 8.43139C34.8514 13.4041 30.1222 19.2088 26.4289 25.6257L26.4107 25.6107Z" fill="#007ACC"/>
<path d="M51.2737 62.5477C47.7586 62.5477 43.294 60.4891 38.6452 56.6205C32.6959 51.3818 27.6612 45.2464 23.7363 38.4521C19.6653 31.8604 16.7103 24.6809 14.9834 17.1857C14.2345 13.8882 14.0957 10.4882 14.5735 7.14378C14.684 5.90311 15.0744 4.701 15.7171 3.62222C16.3599 2.54344 17.2394 1.61426 18.2936 0.900194C22.1512 -1.26134 28.6964 0.960445 35.3765 6.69942C40.9296 11.7761 45.6453 17.6469 49.3592 24.1071C53.4277 30.5449 56.4137 37.5672 58.2055 44.9115C58.9866 48.3301 59.1071 51.859 58.5609 55.32C58.4309 56.5964 58.0173 57.8304 57.3483 58.9376C56.6793 60.0447 55.7708 60.9988 54.6851 61.7343C53.6427 62.2935 52.4653 62.5742 51.2737 62.5477ZM26.4213 36.9408C30.1866 43.434 34.9959 49.3058 40.6686 54.3359C46.503 59.1937 51.1311 60.2381 53.1208 59.1058C55.1962 57.9385 56.7268 53.1736 55.1495 45.4639C53.4214 38.4519 50.5574 31.7488 46.6638 25.6034C43.1197 19.4204 38.6185 13.7987 33.3167 8.93375C27.0283 3.53118 21.9281 2.32364 19.8501 3.48851C19.2025 3.99784 18.671 4.63159 18.2892 5.34975C17.9074 6.0679 17.6837 6.85487 17.6321 7.66094C17.2196 10.6436 17.354 13.6733 18.029 16.6108C19.6901 23.7786 22.5241 30.6435 26.4239 36.9458L26.4213 36.9408Z" fill="#007ACC"/>
</svg>
